# xmcd CD database file
#
# Track frame offsets:
#	150
#	20587
#	40987
#	62664
#	81237
#	103242
#	121835
#	140962
#	161604
#	183916
#
# Disc length: 2739 seconds
#
# Revision: 0
# Processed by: cddbd v1.5.2PL0 Copyright (c) Steve Scherf et al.
# Submitted via: NeoAudio 9.9.9
#
DISCID=8a0ab10a
DTITLE=Lap, Raymond - Lovely Sleepy Baby and the Sea
DYEAR=1900
DGENRE=New Age
TTITLE0=Sleepy Baby And The Sea
TTITLE1=Sea Sounds And Sleepy Babies
TTITLE2=Fall Asleep, Ocean Sounds
TTITLE3=Relaxing Seaside, Baby Tired
TTITLE4=Waves, Music, Waves, Sleep
TTITLE5=Baby's Moment of Meditation
TTITLE6=Ocean, Baby, Sleep
TTITLE7=Baby Cools Down
TTITLE8=Waves Of Harmony
TTITLE9=Baby Loves The Sounds Of The Sea
EXTD=
EXTT0=
EXTT1=
EXTT2=
EXTT3=
EXTT4=
EXTT5=
EXTT6=
EXTT7=
EXTT8=
EXTT9=
PLAYORDER=
